<?xml version="1.0" standalone="no"?>
<!DOCTYPE svg PUBLIC "-//W3C//DTD SVG 20010904//EN"
 "http://www.w3.org/TR/2001/REC-SVG-20010904/DTD/svg10.dtd">
<svg version="1.0" xmlns="http://www.w3.org/2000/svg"
 width="300.000000pt" height="300.000000pt" viewBox="0 0 300.000000 300.000000"
 preserveAspectRatio="xMidYMid meet">
<metadata>
Created by potrace 1.11, written by Peter Selinger 2001-2013
</metadata>
<g transform="translate(0.000000,300.000000) scale(0.100000,-0.100000)"
fill="#000000" stroke="none">
<path d="M683 2651 c-10 -16 -13 -290 -13 -1226 l1 -1205 179 0 180 0 2 402 3
402 53 1 c29 0 57 -4 61 -10 5 -5 8 -35 7 -65 -2 -94 -40 -87 411 -85 219 1
403 3 410 3 8 1 13 28 15 79 l3 78 75 0 75 0 1 51 c1 28 4 56 8 63 4 6 2 11
-4 11 -7 0 -8 6 -2 17 8 13 25 17 83 17 l74 1 5 505 c3 278 3 537 0 575 l-5
70 -75 0 -75 1 -6 36 c-3 21 -1 42 5 48 6 6 6 10 0 10 -5 0 -9 15 -9 32 l0 32
-75 1 -75 0 -3 78 c-2 43 -7 77 -13 77 -6 0 -7 6 -3 13 5 8 2 8 -9 -2 -14 -11
-17 -11 -17 0 0 10 -3 10 -12 1 -7 -7 -17 -12 -23 -12 -5 0 -4 4 3 9 8 5 -2 7
-25 7 -21 -1 -43 -5 -50 -9 -6 -4 -14 -3 -18 3 -3 5 -11 10 -16 10 -6 0 -7 -4
-4 -10 3 -5 1 -10 -4 -10 -6 0 -11 5 -11 12 0 9 -3 9 -12 0 -16 -16 -31 -15
-22 1 5 8 2 8 -9 -2 -13 -10 -17 -10 -17 -1 0 10 -3 10 -14 1 -10 -9 -16 -9
-21 -1 -5 8 -11 8 -19 1 -9 -7 -16 -7 -23 0 -8 8 -13 8 -17 0 -4 -6 -13 -11
-19 -11 -9 0 -9 2 0 8 7 4 -10 8 -37 8 -28 0 -44 -4 -37 -8 7 -5 1 -7 -15 -6
-15 1 -24 6 -22 10 3 4 -4 8 -15 8 -10 0 -22 -6 -24 -12 -4 -10 -8 -10 -15 1
-9 12 -13 12 -26 2 -12 -11 -16 -11 -16 -1 0 10 -3 10 -14 1 -10 -9 -16 -9
-21 -1 -5 8 -10 8 -20 0 -10 -8 -15 -8 -20 0 -5 8 -11 8 -21 -1 -8 -6 -17 -9
-21 -5 -3 3 0 6 7 6 7 0 10 3 7 6 -4 4 -13 1 -22 -6 -12 -10 -15 -10 -15 1 0
10 -3 10 -12 1 -13 -13 -52 -17 -44 -4 2 4 -4 8 -14 8 -10 0 -16 -5 -13 -10 4
-5 -1 -7 -10 -3 -10 4 -17 1 -18 -6 0 -7 -1 -43 -2 -82 l-2 -70 -60 0 -60 0
-3 78 c-2 43 -7 77 -13 77 -6 0 -7 6 -3 13 5 8 2 8 -9 -2 -11 -9 -17 -10 -17
-2 0 8 -5 8 -19 -1 -15 -9 -23 -9 -37 3 -14 11 -18 11 -22 1 -3 -10 -7 -10
-20 0 -12 10 -14 10 -8 1 4 -7 3 -13 -3 -13 -5 0 -11 6 -14 13 -3 9 -9 9 -25
0 -13 -8 -23 -9 -27 -3 -3 6 -12 10 -18 10 -7 0 -6 -4 3 -10 12 -8 10 -10 -8
-10 -13 0 -20 4 -17 10 8 13 -17 8 -28 -5 -6 -6 -10 -6 -14 3 -2 6 -9 12 -14
12 -6 0 -7 -4 -4 -10 3 -5 2 -10 -4 -10 -5 0 -11 5 -13 10 -2 6 -9 1 -15 -9z
m144 -34 c11 -12 11 -116 0 -119 -7 -2 -34 -4 -62 -3 l-50 0 -3 54 c-2 29 -1
59 1 65 4 11 103 14 114 3z m164 4 c3 -1 6 -29 7 -64 l1 -62 -61 0 -62 0 -2
58 c-2 50 1 59 18 66 16 6 63 7 99 2z m320 -5 c6 -58 3 -116 -6 -119 -5 -1
-32 -3 -60 -2 l-50 0 -3 55 c-2 38 1 57 11 65 19 13 107 14 108 1z m164 -11
c2 -11 3 -40 2 -65 l-2 -45 -58 0 c-50 -1 -58 2 -62 20 -3 17 -1 89 4 105 0 3
26 5 56 5 48 0 56 -3 60 -20z m156 5 c0 -8 2 -33 3 -55 2 -22 1 -45 -1 -51 -2
-5 -29 -10 -61 -9 l-57 1 -3 61 c-3 61 -3 62 25 65 64 7 93 4 94 -12z m139 11
c24 -1 25 -3 25 -63 l0 -63 -60 0 -59 0 -2 50 c-3 73 1 80 38 78 18 -1 44 -2
58 -2z m177 0 c15 -1 14 -119 -1 -123 -6 -2 -33 -4 -61 -3 l-50 0 -2 55 c0 30
0 60 2 65 2 8 46 11 112 6z m-1132 -160 c18 -1 21 -8 20 -61 l0 -60 -62 0 -63
0 0 59 c0 64 5 69 60 64 14 -1 34 -2 45 -2z m151 0 c31 -1 31 -1 33 -61 l2
-61 -63 3 -63 3 -1 50 c-1 58 7 73 38 69 13 -1 37 -3 54 -3z m179 0 c6 -1 11
-26 10 -58 l0 -58 -63 -3 -62 -3 0 60 c0 32 4 61 10 63 8 2 71 2 105 -1z m162
-5 c9 -8 11 -116 3 -117 -40 -6 -103 -3 -108 5 -4 6 -7 34 -8 63 -1 39 3 53
14 55 29 6 92 2 99 -6z m144 5 c26 -1 27 -3 27 -61 0 -33 -4 -61 -9 -61 -26
-4 -96 -5 -106 -1 -8 2 -10 24 -8 65 2 34 4 62 4 62 1 0 16 -1 33 -2 18 -1 45
-2 59 -2z m174 0 c12 -1 14 -113 3 -122 -6 -4 -81 -4 -110 0 -8 1 -11 114 -4
122 4 3 74 3 111 0z m160 0 c6 -1 11 -28 11 -61 1 -52 -1 -60 -17 -61 -63 -4
-85 -5 -95 -1 -7 2 -11 26 -9 65 2 34 3 62 4 62 11 0 99 -3 106 -4z m146 0
c25 -1 26 -3 25 -61 l0 -60 -62 0 -62 0 -1 57 c0 31 1 59 3 62 2 3 19 5 38 4
18 -1 45 -2 59 -2z m177 -5 c4 -4 7 -32 8 -62 l1 -54 -64 0 -63 0 0 59 c0 33
5 61 10 63 18 6 100 1 108 -6z m-760 -160 c6 -3 13 -2 16 2 6 10 112 9 122 -1
4 -4 14 -1 22 6 13 10 14 9 7 -3 -7 -12 -6 -13 6 -4 13 11 117 11 145 0 7 -3
16 -1 18 3 5 7 42 8 103 2 8 -1 11 -23 10 -72 -2 -84 3 -90 87 -86 31 2 60 -2
65 -7 9 -12 11 -755 2 -757 -3 -1 -36 -2 -73 -3 -36 0 -70 -4 -74 -8 -4 -4 -7
-40 -8 -80 l-1 -72 -293 -1 c-162 0 -298 2 -302 5 -5 3 -10 39 -12 80 l-3 75
-75 0 -75 0 0 384 0 384 72 1 c39 0 75 4 79 9 4 4 6 36 5 72 -1 36 0 68 3 73
5 9 139 7 154 -2z m927 -11 c2 -11 3 -38 2 -60 l-2 -40 -60 0 -60 0 -1 55 c0
30 1 57 2 60 1 3 27 5 58 5 49 0 57 -3 61 -20z m-1454 9 c15 -4 18 -38 10
-107 -1 -4 -27 -7 -58 -5 l-58 3 -3 49 c-2 32 1 52 10 57 13 9 71 10 99 3z
m174 -54 l0 -55 -60 0 -59 0 -2 50 c-1 28 0 53 2 57 2 3 30 5 61 4 l58 -1 0
-55z m163 -2 c-1 -32 -4 -59 -7 -59 -20 -4 -98 -5 -108 -1 -9 3 -13 25 -13 62
l0 58 64 -1 64 -2 0 -57z m777 57 c17 -3 20 -13 22 -59 2 -61 0 -62 -72 -61
l-50 0 -3 49 c-2 27 -1 54 1 60 5 12 66 19 102 11z m176 -6 c1 -5 2 -20 2 -34
0 -79 2 -75 -60 -73 l-58 3 -3 44 c-2 24 -1 49 1 55 6 15 116 19 118 5z
m-1277 -206 c-1 -32 -2 -61 -3 -64 0 -3 -27 -5 -58 -4 l-58 1 -3 48 c-5 72 -1
76 65 76 l58 0 -1 -57z m165 -3 c0 -65 -1 -66 -73 -65 l-50 0 -2 55 c-1 30 0
58 3 63 2 4 31 6 63 6 l58 -2 1 -57z m1112 43 c5 -116 12 -104 -61 -107 -56
-3 -60 1 -60 64 l0 57 60 2 c51 1 60 -1 61 -16z m164 -48 l0 -60 -50 -1 c-27
0 -55 1 -61 3 -8 3 -13 112 -5 119 0 1 27 1 59 0 l57 -1 0 -60z m-1452 -94 c9
-1 13 -18 12 -58 l0 -58 -63 -3 -62 -3 0 60 c0 32 5 61 10 63 9 3 70 2 103 -1z
m163 0 c6 -1 12 -26 13 -61 l2 -61 -63 3 -63 3 -1 55 c-1 30 0 57 2 61 2 4 67
4 110 0z m1120 -3 c8 -6 9 -22 5 -99 -1 -14 -13 -17 -61 -18 l-60 -1 0 59 c0
39 4 61 13 64 17 6 91 2 103 -5z m166 3 c3 -1 6 -27 6 -60 l-1 -59 -61 2 -61
1 0 55 c-1 30 3 58 8 61 7 5 74 5 109 0z m-1441 -171 c7 -51 4 -102 -7 -111
-8 -6 -14 -8 -14 -3 0 5 -21 9 -47 9 l-48 0 -3 49 c-2 32 1 52 10 57 14 9 108
8 109 -1z m166 -52 l2 -56 -62 1 -62 2 -1 50 c-1 28 4 53 10 57 6 4 34 6 61 5
l50 -3 2 -56z m1114 51 c1 -5 2 -20 2 -34 0 -74 -2 -78 -28 -73 -14 3 -27 2
-30 -2 -2 -4 -18 -5 -35 -2 -29 4 -30 5 -30 61 l0 57 60 1 c33 1 61 -3 61 -8z
m166 -39 c2 -56 -5 -82 -19 -73 -7 3 -26 6 -43 6 -17 0 -36 -3 -43 -6 -6 -4
-13 1 -15 10 -4 15 -3 83 2 104 0 4 27 6 59 5 l57 -1 2 -45z m-1442 -175 l-1
-59 -49 1 c-28 1 -56 2 -62 2 -9 1 -13 20 -13 61 l0 61 63 -3 62 -3 0 -60z
m163 5 c1 -65 3 -63 -63 -62 -63 0 -61 -2 -59 60 1 31 2 58 3 60 0 1 27 2 59
2 l58 0 2 -60z m1113 50 c2 -13 2 -52 0 -87 -1 -27 -3 -28 -53 -26 -29 1 -56
2 -60 2 -5 1 -8 28 -8 61 l0 60 60 0 c33 0 61 -4 61 -10z m166 -52 c1 -39 -2
-58 -10 -59 -14 -1 -99 -1 -109 0 -4 1 -6 28 -5 61 l2 61 60 -3 60 -3 2 -57z
m-1462 -97 c19 -1 21 -7 20 -58 l0 -58 -63 -2 -62 -2 0 59 c0 62 4 67 54 64
17 -1 40 -2 51 -3z m176 -4 c3 -4 7 -32 8 -61 l2 -53 -63 1 -63 1 -1 50 c0 28
1 55 3 60 4 12 105 14 114 2z m1120 -12 c2 -24 2 -75 0 -92 -1 -8 -21 -12 -61
-11 l-60 2 0 56 c0 31 2 59 4 61 3 2 30 4 60 4 49 0 56 -3 57 -20z m161 16 c4
-1 6 -27 5 -58 l-2 -58 -60 0 -60 0 0 55 c-1 30 0 57 1 60 2 4 88 5 116 1z
m-1126 -164 c17 -10 15 -115 -3 -121 -8 -3 -11 -1 -8 4 4 6 -1 7 -11 3 -9 -3
-33 -6 -53 -6 l-36 0 -3 53 c-2 29 -1 58 1 64 5 12 95 15 113 3z m805 4 c4 -1
6 -27 5 -58 l-1 -58 -50 -5 c-27 -3 -56 -1 -62 4 -12 8 -19 107 -9 117 4 3 97
4 117 0z m-1116 -51 c1 -65 -6 -75 -52 -73 -21 1 -46 2 -55 2 -15 1 -18 11
-18 55 0 62 4 65 75 62 l50 -2 0 -44z m162 -5 c4 -65 -2 -79 -24 -67 -9 6 -26
7 -37 2 -41 -15 -60 3 -62 56 -1 27 0 51 1 54 2 3 30 6 62 5 l58 0 2 -50z
m1114 42 c1 -17 1 -90 0 -104 -1 -8 -10 -9 -30 -3 -17 4 -31 5 -33 0 -2 -5
-15 -6 -30 -3 -26 5 -28 9 -28 57 0 29 2 55 5 58 11 11 115 7 116 -5z m166
-49 c2 -63 1 -64 -72 -63 l-49 0 -1 62 -1 62 60 -2 61 -2 2 -57z m-1442 -162
c0 -60 3 -58 -65 -58 -62 0 -60 -2 -60 61 l0 60 43 3 c73 5 82 -1 82 -66z
m164 3 l0 -59 -63 0 -63 0 1 57 c1 56 2 58 31 63 17 3 44 4 62 2 31 -4 31 -4
32 -63z m306 59 c11 -11 12 -110 1 -114 -24 -9 -73 -11 -92 -3 -17 6 -20 16
-20 56 1 26 4 53 8 58 7 11 93 14 103 3z m166 2 c1 -3 3 -31 5 -62 3 -64 9
-60 -81 -60 -14 0 -29 0 -33 1 -6 1 -9 126 -3 126 0 0 26 0 56 0 30 0 56 -2
56 -5z m160 -10 c5 -55 3 -110 -3 -111 -5 0 -28 -1 -53 -1 -25 0 -49 1 -55 1
-9 1 -15 113 -6 122 2 2 29 4 60 4 43 0 56 -4 57 -15z m154 11 c12 -1 14 -121
3 -122 -4 0 -28 -1 -53 -1 -25 0 -49 1 -53 1 -6 1 -9 126 -3 126 7 0 98 -3
106 -4z m171 -62 c0 -65 5 -61 -81 -61 -14 0 -29 0 -34 1 -5 1 -9 28 -10 60
-1 67 3 69 85 63 l41 -4 -1 -59z m-802 4 c-1 -32 -2 -61 -3 -64 -1 -5 -67 -5
-113 0 -5 1 -8 28 -8 61 l0 60 63 0 62 0 -1 -57z m962 -5 c0 -33 -4 -59 -10
-61 -10 -2 -42 -2 -98 2 -15 1 -18 11 -18 61 l0 61 62 -3 63 -3 1 -57z m-1289
-101 c3 -4 7 -29 8 -57 3 -57 -4 -61 -80 -57 l-40 2 -3 49 c-2 27 -1 54 1 60
5 11 103 14 114 3z m166 -2 c2 -5 4 -32 3 -60 l-1 -50 -60 0 -60 0 -1 53 c-1
44 2 55 17 60 28 11 98 9 102 -3z m317 -16 c3 -13 5 -31 4 -39 -1 -8 -2 -26
-3 -40 -1 -24 -4 -25 -53 -24 -29 1 -56 2 -60 3 -8 1 -11 114 -4 122 2 2 28 3
57 3 47 -1 54 -4 59 -25z m159 22 c16 -2 10 -121 -5 -122 -54 -5 -97 -2 -102
6 -12 18 -8 110 5 115 10 4 70 5 102 1z m160 -6 c3 -4 6 -31 6 -60 0 -60 -2
-62 -75 -60 l-45 1 -3 54 c-2 39 1 57 11 65 15 11 95 11 106 0z m151 6 c20 -1
22 -108 2 -120 -15 -9 -83 -8 -99 2 -13 8 -9 107 5 116 6 3 25 5 44 4 18 -1
40 -2 48 -2z m171 0 c7 -25 5 -117 -2 -121 -4 -3 -32 -5 -61 -4 l-53 1 -2 54
c-1 35 2 58 11 64 14 10 105 15 107 6z m-1120 -169 c7 -44 3 -105 -8 -114 -9
-7 -13 -7 -13 1 0 8 -5 9 -15 4 -8 -5 -31 -7 -50 -5 l-35 4 0 57 0 57 60 2
c33 0 61 -2 61 -6z m166 -54 l1 -56 -49 -4 c-28 -1 -55 -1 -62 2 -7 3 -12 27
-12 62 l-1 57 61 -2 60 -2 2 -57z m-182 -97 c18 -1 21 -7 20 -58 l0 -58 -63
-3 -62 -3 0 59 c0 32 2 61 5 63 2 3 21 4 42 3 21 -1 47 -3 58 -3z m177 0 c4
-1 7 -28 7 -61 l-1 -61 -61 3 -62 3 -1 55 c0 30 1 57 2 60 2 4 85 5 116 1z
m-242 -162 c0 -4 16 -3 35 1 50 11 56 -1 46 -107 -1 -8 -21 -12 -61 -11 l-60
2 0 56 c0 31 2 59 5 62 8 7 35 6 35 -3z m241 -2 c3 -4 7 -32 8 -61 l2 -54 -63
2 -63 1 -1 50 c0 28 3 55 7 60 9 12 101 14 110 2z m-156 -209 c0 -29 -3 -57
-7 -63 -5 -8 -73 -12 -110 -6 -5 0 -8 28 -8 61 l0 60 63 0 63 0 -1 -52z m164
-8 c-1 -33 -4 -60 -8 -61 -22 -3 -98 -5 -107 -2 -8 3 -13 106 -5 121 0 1 28 2
61 2 l60 0 -1 -60z"/>
</g>
</svg>
